<svg xmlns="http://www.w3.org/2000/svg" version="1.1" xmlns:xlink="http://www.w3.org/1999/xlink" xmlns:svgjs="http://svgjs.com/svgjs" width="1920" height="8000" preserveAspectRatio="none" viewBox="0 0 1920 8000"><g mask="url(&quot;#SvgjsMask1515&quot;)" fill="none"><rect width="1920" height="8000" x="0" y="0" fill="url(#SvgjsLinearGradient1516)"></rect><use xlink:href="#SvgjsSymbol1523" x="0" y="0"></use><use xlink:href="#SvgjsSymbol1523" x="0" y="720"></use><use xlink:href="#SvgjsSymbol1523" x="0" y="1440"></use><use xlink:href="#SvgjsSymbol1523" x="0" y="2160"></use><use xlink:href="#SvgjsSymbol1523" x="0" y="2880"></use><use xlink:href="#SvgjsSymbol1523" x="0" y="3600"></use><use xlink:href="#SvgjsSymbol1523" x="0" y="4320"></use><use xlink:href="#SvgjsSymbol1523" x="0" y="5040"></use><use xlink:href="#SvgjsSymbol1523" x="0" y="5760"></use><use xlink:href="#SvgjsSymbol1523" x="0" y="6480"></use><use xlink:href="#SvgjsSymbol1523" x="0" y="7200"></use><use xlink:href="#SvgjsSymbol1523" x="0" y="7920"></use><use xlink:href="#SvgjsSymbol1523" x="720" y="0"></use><use xlink:href="#SvgjsSymbol1523" x="720" y="720"></use><use xlink:href="#SvgjsSymbol1523" x="720" y="1440"></use><use xlink:href="#SvgjsSymbol1523" x="720" y="2160"></use><use xlink:href="#SvgjsSymbol1523" x="720" y="2880"></use><use xlink:href="#SvgjsSymbol1523" x="720" y="3600"></use><use xlink:href="#SvgjsSymbol1523" x="720" y="4320"></use><use xlink:href="#SvgjsSymbol1523" x="720" y="5040"></use><use xlink:href="#SvgjsSymbol1523" x="720" y="5760"></use><use xlink:href="#SvgjsSymbol1523" x="720" y="6480"></use><use xlink:href="#SvgjsSymbol1523" x="720" y="7200"></use><use xlink:href="#SvgjsSymbol1523" x="720" y="7920"></use><use xlink:href="#SvgjsSymbol1523" x="1440" y="0"></use><use xlink:href="#SvgjsSymbol1523" x="1440" y="720"></use><use xlink:href="#SvgjsSymbol1523" x="1440" y="1440"></use><use xlink:href="#SvgjsSymbol1523" x="1440" y="2160"></use><use xlink:href="#SvgjsSymbol1523" x="1440" y="2880"></use><use xlink:href="#SvgjsSymbol1523" x="1440" y="3600"></use><use xlink:href="#SvgjsSymbol1523" x="1440" y="4320"></use><use xlink:href="#SvgjsSymbol1523" x="1440" y="5040"></use><use xlink:href="#SvgjsSymbol1523" x="1440" y="5760"></use><use xlink:href="#SvgjsSymbol1523" x="1440" y="6480"></use><use xlink:href="#SvgjsSymbol1523" x="1440" y="7200"></use><use xlink:href="#SvgjsSymbol1523" x="1440" y="7920"></use></g><defs><mask id="SvgjsMask1515"><rect width="1920" height="8000" fill="#ffffff"></rect></mask><linearGradient x1="50%" y1="100%" x2="50%" y2="0%" gradientUnits="userSpaceOnUse" id="SvgjsLinearGradient1516"><stop stop-color="rgba(9, 112, 85, 1)" offset="0.22"></stop><stop stop-color="rgba(110, 3, 102, 1)" offset="1"></stop></linearGradient><path d="M-1 0 a1 1 0 1 0 2 0 a1 1 0 1 0 -2 0z" id="SvgjsPath1522"></path><path d="M-3 0 a3 3 0 1 0 6 0 a3 3 0 1 0 -6 0z" id="SvgjsPath1521"></path><path d="M-5 0 a5 5 0 1 0 10 0 a5 5 0 1 0 -10 0z" id="SvgjsPath1520"></path><path d="M2 -2 L-2 2z" id="SvgjsPath1517"></path><path d="M6 -6 L-6 6z" id="SvgjsPath1518"></path><path d="M30 -30 L-30 30z" id="SvgjsPath1519"></path></defs><symbol id="SvgjsSymbol1523"><use xlink:href="#SvgjsPath1517" x="30" y="30" stroke="rgba(14, 182, 61, 1)"></use><use xlink:href="#SvgjsPath1517" x="30" y="90" stroke="rgba(14, 182, 61, 1)"></use><use xlink:href="#SvgjsPath1518" x="30" y="150" stroke="rgba(14, 182, 61, 1)"></use><use xlink:href="#SvgjsPath1519" x="30" y="210" stroke="rgba(14, 182, 61, 1)" stroke-width="3"></use><use xlink:href="#SvgjsPath1517" x="30" y="270" stroke="rgba(14, 182, 61, 1)"></use><use xlink:href="#SvgjsPath1520" x="30" y="330" stroke="rgba(14, 182, 61, 1)"></use><use xlink:href="#SvgjsPath1521" x="30" y="390" stroke="rgba(14, 182, 61, 1)"></use><use xlink:href="#SvgjsPath1519" x="30" y="450" stroke="rgba(14, 182, 61, 1)" stroke-width="3"></use><use xlink:href="#SvgjsPath1518" x="30" y="510" stroke="rgba(14, 182, 61, 1)"></use><use xlink:href="#SvgjsPath1518" x="30" y="570" stroke="rgba(14, 182, 61, 1)"></use><use xlink:href="#SvgjsPath1518" x="30" y="630" stroke="rgba(14, 182, 61, 1)"></use><use xlink:href="#SvgjsPath1517" x="30" y="690" stroke="rgba(14, 182, 61, 1)"></use><use xlink:href="#SvgjsPath1522" x="90" y="30" stroke="rgba(14, 182, 61, 1)"></use><use xlink:href="#SvgjsPath1522" x="90" y="90" stroke="rgba(14, 182, 61, 1)"></use><use xlink:href="#SvgjsPath1520" x="90" y="150" stroke="rgba(14, 182, 61, 1)"></use><use xlink:href="#SvgjsPath1518" x="90" y="210" stroke="rgba(14, 182, 61, 1)"></use><use xlink:href="#SvgjsPath1518" x="90" y="270" stroke="rgba(14, 182, 61, 1)"></use><use xlink:href="#SvgjsPath1519" x="90" y="330" stroke="rgba(14, 182, 61, 1)" stroke-width="3"></use><use xlink:href="#SvgjsPath1520" x="90" y="390" stroke="rgba(14, 182, 61, 1)"></use><use xlink:href="#SvgjsPath1518" x="90" y="450" stroke="rgba(14, 182, 61, 1)"></use><use xlink:href="#SvgjsPath1518" x="90" y="510" stroke="rgba(14, 182, 61, 1)"></use><use xlink:href="#SvgjsPath1518" x="90" y="570" stroke="rgba(14, 182, 61, 1)"></use><use xlink:href="#SvgjsPath1520" x="90" y="630" stroke="rgba(14, 182, 61, 1)"></use><use xlink:href="#SvgjsPath1518" x="90" y="690" stroke="rgba(14, 182, 61, 1)"></use><use xlink:href="#SvgjsPath1518" x="150" y="30" stroke="rgba(14, 182, 61, 1)"></use><use xlink:href="#SvgjsPath1518" x="150" y="90" stroke="rgba(14, 182, 61, 1)"></use><use xlink:href="#SvgjsPath1517" x="150" y="150" stroke="rgba(14, 182, 61, 1)"></use><use xlink:href="#SvgjsPath1522" x="150" y="210" stroke="rgba(14, 182, 61, 1)"></use><use xlink:href="#SvgjsPath1522" x="150" y="270" stroke="rgba(14, 182, 61, 1)"></use><use xlink:href="#SvgjsPath1518" x="150" y="330" stroke="rgba(14, 182, 61, 1)"></use><use xlink:href="#SvgjsPath1517" x="150" y="390" stroke="rgba(14, 182, 61, 1)"></use><use xlink:href="#SvgjsPath1517" x="150" y="450" stroke="rgba(14, 182, 61, 1)"></use><use xlink:href="#SvgjsPath1518" x="150" y="510" stroke="rgba(14, 182, 61, 1)"></use><use xlink:href="#SvgjsPath1518" x="150" y="570" stroke="rgba(14, 182, 61, 1)"></use><use xlink:href="#SvgjsPath1518" x="150" y="630" stroke="rgba(14, 182, 61, 1)"></use><use xlink:href="#SvgjsPath1520" x="150" y="690" stroke="rgba(14, 182, 61, 1)"></use><use xlink:href="#SvgjsPath1518" x="210" y="30" stroke="rgba(14, 182, 61, 1)"></use><use xlink:href="#SvgjsPath1518" x="210" y="90" stroke="rgba(14, 182, 61, 1)"></use><use xlink:href="#SvgjsPath1519" x="210" y="150" stroke="rgba(14, 182, 61, 1)" stroke-width="3"></use><use xlink:href="#SvgjsPath1519" x="210" y="210" stroke="rgba(14, 182, 61, 1)" stroke-width="3"></use><use xlink:href="#SvgjsPath1518" x="210" y="270" stroke="rgba(14, 182, 61, 1)"></use><use xlink:href="#SvgjsPath1520" x="210" y="330" stroke="rgba(14, 182, 61, 1)"></use><use xlink:href="#SvgjsPath1521" x="210" y="390" stroke="rgba(14, 182, 61, 1)"></use><use xlink:href="#SvgjsPath1517" x="210" y="450" stroke="rgba(14, 182, 61, 1)"></use><use xlink:href="#SvgjsPath1521" x="210" y="510" stroke="rgba(14, 182, 61, 1)"></use><use xlink:href="#SvgjsPath1518" x="210" y="570" stroke="rgba(14, 182, 61, 1)"></use><use xlink:href="#SvgjsPath1520" x="210" y="630" stroke="rgba(14, 182, 61, 1)"></use><use xlink:href="#SvgjsPath1517" x="210" y="690" stroke="rgba(14, 182, 61, 1)"></use><use xlink:href="#SvgjsPath1520" x="270" y="30" stroke="rgba(14, 182, 61, 1)"></use><use xlink:href="#SvgjsPath1520" x="270" y="90" stroke="rgba(14, 182, 61, 1)"></use><use xlink:href="#SvgjsPath1521" x="270" y="150" stroke="rgba(14, 182, 61, 1)"></use><use xlink:href="#SvgjsPath1522" x="270" y="210" stroke="rgba(14, 182, 61, 1)"></use><use xlink:href="#SvgjsPath1520" x="270" y="270" stroke="rgba(14, 182, 61, 1)"></use><use xlink:href="#SvgjsPath1520" x="270" y="330" stroke="rgba(14, 182, 61, 1)"></use><use xlink:href="#SvgjsPath1517" x="270" y="390" stroke="rgba(14, 182, 61, 1)"></use><use xlink:href="#SvgjsPath1522" x="270" y="450" stroke="rgba(14, 182, 61, 1)"></use><use xlink:href="#SvgjsPath1518" x="270" y="510" stroke="rgba(14, 182, 61, 1)"></use><use xlink:href="#SvgjsPath1520" x="270" y="570" stroke="rgba(14, 182, 61, 1)"></use><use xlink:href="#SvgjsPath1518" x="270" y="630" stroke="rgba(14, 182, 61, 1)"></use><use xlink:href="#SvgjsPath1518" x="270" y="690" stroke="rgba(14, 182, 61, 1)"></use><use xlink:href="#SvgjsPath1518" x="330" y="30" stroke="rgba(14, 182, 61, 1)"></use><use xlink:href="#SvgjsPath1518" x="330" y="90" stroke="rgba(14, 182, 61, 1)"></use><use xlink:href="#SvgjsPath1517" x="330" y="150" stroke="rgba(14, 182, 61, 1)"></use><use xlink:href="#SvgjsPath1520" x="330" y="210" stroke="rgba(14, 182, 61, 1)"></use><use xlink:href="#SvgjsPath1517" x="330" y="270" stroke="rgba(14, 182, 61, 1)"></use><use xlink:href="#SvgjsPath1518" x="330" y="330" stroke="rgba(14, 182, 61, 1)"></use><use xlink:href="#SvgjsPath1521" x="330" y="390" stroke="rgba(14, 182, 61, 1)"></use><use xlink:href="#SvgjsPath1518" x="330" y="450" stroke="rgba(14, 182, 61, 1)"></use><use xlink:href="#SvgjsPath1522" x="330" y="510" stroke="rgba(14, 182, 61, 1)"></use><use xlink:href="#SvgjsPath1517" x="330" y="570" stroke="rgba(14, 182, 61, 1)"></use><use xlink:href="#SvgjsPath1520" x="330" y="630" stroke="rgba(14, 182, 61, 1)"></use><use xlink:href="#SvgjsPath1521" x="330" y="690" stroke="rgba(14, 182, 61, 1)"></use><use xlink:href="#SvgjsPath1518" x="390" y="30" stroke="rgba(14, 182, 61, 1)"></use><use xlink:href="#SvgjsPath1520" x="390" y="90" stroke="rgba(14, 182, 61, 1)"></use><use xlink:href="#SvgjsPath1520" x="390" y="150" stroke="rgba(14, 182, 61, 1)"></use><use xlink:href="#SvgjsPath1518" x="390" y="210" stroke="rgba(14, 182, 61, 1)"></use><use xlink:href="#SvgjsPath1518" x="390" y="270" stroke="rgba(14, 182, 61, 1)"></use><use xlink:href="#SvgjsPath1518" x="390" y="330" stroke="rgba(14, 182, 61, 1)"></use><use xlink:href="#SvgjsPath1520" x="390" y="390" stroke="rgba(14, 182, 61, 1)"></use><use xlink:href="#SvgjsPath1520" x="390" y="450" stroke="rgba(14, 182, 61, 1)"></use><use xlink:href="#SvgjsPath1518" x="390" y="510" stroke="rgba(14, 182, 61, 1)"></use><use xlink:href="#SvgjsPath1521" x="390" y="570" stroke="rgba(14, 182, 61, 1)"></use><use xlink:href="#SvgjsPath1522" x="390" y="630" stroke="rgba(14, 182, 61, 1)"></use><use xlink:href="#SvgjsPath1520" x="390" y="690" stroke="rgba(14, 182, 61, 1)"></use><use xlink:href="#SvgjsPath1520" x="450" y="30" stroke="rgba(14, 182, 61, 1)"></use><use xlink:href="#SvgjsPath1520" x="450" y="90" stroke="rgba(14, 182, 61, 1)"></use><use xlink:href="#SvgjsPath1520" x="450" y="150" stroke="rgba(14, 182, 61, 1)"></use><use xlink:href="#SvgjsPath1520" x="450" y="210" stroke="rgba(14, 182, 61, 1)"></use><use xlink:href="#SvgjsPath1520" x="450" y="270" stroke="rgba(14, 182, 61, 1)"></use><use xlink:href="#SvgjsPath1518" x="450" y="330" stroke="rgba(14, 182, 61, 1)"></use><use xlink:href="#SvgjsPath1520" x="450" y="390" stroke="rgba(14, 182, 61, 1)"></use><use xlink:href="#SvgjsPath1517" x="450" y="450" stroke="rgba(14, 182, 61, 1)"></use><use xlink:href="#SvgjsPath1520" x="450" y="510" stroke="rgba(14, 182, 61, 1)"></use><use xlink:href="#SvgjsPath1520" x="450" y="570" stroke="rgba(14, 182, 61, 1)"></use><use xlink:href="#SvgjsPath1517" x="450" y="630" stroke="rgba(14, 182, 61, 1)"></use><use xlink:href="#SvgjsPath1520" x="450" y="690" stroke="rgba(14, 182, 61, 1)"></use><use xlink:href="#SvgjsPath1517" x="510" y="30" stroke="rgba(14, 182, 61, 1)"></use><use xlink:href="#SvgjsPath1521" x="510" y="90" stroke="rgba(14, 182, 61, 1)"></use><use xlink:href="#SvgjsPath1520" x="510" y="150" stroke="rgba(14, 182, 61, 1)"></use><use xlink:href="#SvgjsPath1520" x="510" y="210" stroke="rgba(14, 182, 61, 1)"></use><use xlink:href="#SvgjsPath1520" x="510" y="270" stroke="rgba(14, 182, 61, 1)"></use><use xlink:href="#SvgjsPath1521" x="510" y="330" stroke="rgba(14, 182, 61, 1)"></use><use xlink:href="#SvgjsPath1518" x="510" y="390" stroke="rgba(14, 182, 61, 1)"></use><use xlink:href="#SvgjsPath1517" x="510" y="450" stroke="rgba(14, 182, 61, 1)"></use><use xlink:href="#SvgjsPath1520" x="510" y="510" stroke="rgba(14, 182, 61, 1)"></use><use xlink:href="#SvgjsPath1520" x="510" y="570" stroke="rgba(14, 182, 61, 1)"></use><use xlink:href="#SvgjsPath1517" x="510" y="630" stroke="rgba(14, 182, 61, 1)"></use><use xlink:href="#SvgjsPath1521" x="510" y="690" stroke="rgba(14, 182, 61, 1)"></use><use xlink:href="#SvgjsPath1518" x="570" y="30" stroke="rgba(14, 182, 61, 1)"></use><use xlink:href="#SvgjsPath1521" x="570" y="90" stroke="rgba(14, 182, 61, 1)"></use><use xlink:href="#SvgjsPath1517" x="570" y="150" stroke="rgba(14, 182, 61, 1)"></use><use xlink:href="#SvgjsPath1520" x="570" y="210" stroke="rgba(14, 182, 61, 1)"></use><use xlink:href="#SvgjsPath1517" x="570" y="270" stroke="rgba(14, 182, 61, 1)"></use><use xlink:href="#SvgjsPath1520" x="570" y="330" stroke="rgba(14, 182, 61, 1)"></use><use xlink:href="#SvgjsPath1522" x="570" y="390" stroke="rgba(14, 182, 61, 1)"></use><use xlink:href="#SvgjsPath1518" x="570" y="450" stroke="rgba(14, 182, 61, 1)"></use><use xlink:href="#SvgjsPath1520" x="570" y="510" stroke="rgba(14, 182, 61, 1)"></use><use xlink:href="#SvgjsPath1518" x="570" y="570" stroke="rgba(14, 182, 61, 1)"></use><use xlink:href="#SvgjsPath1518" x="570" y="630" stroke="rgba(14, 182, 61, 1)"></use><use xlink:href="#SvgjsPath1518" x="570" y="690" stroke="rgba(14, 182, 61, 1)"></use><use xlink:href="#SvgjsPath1520" x="630" y="30" stroke="rgba(14, 182, 61, 1)"></use><use xlink:href="#SvgjsPath1517" x="630" y="90" stroke="rgba(14, 182, 61, 1)"></use><use xlink:href="#SvgjsPath1518" x="630" y="150" stroke="rgba(14, 182, 61, 1)"></use><use xlink:href="#SvgjsPath1518" x="630" y="210" stroke="rgba(14, 182, 61, 1)"></use><use xlink:href="#SvgjsPath1520" x="630" y="270" stroke="rgba(14, 182, 61, 1)"></use><use xlink:href="#SvgjsPath1518" x="630" y="330" stroke="rgba(14, 182, 61, 1)"></use><use xlink:href="#SvgjsPath1518" x="630" y="390" stroke="rgba(14, 182, 61, 1)"></use><use xlink:href="#SvgjsPath1521" x="630" y="450" stroke="rgba(14, 182, 61, 1)"></use><use xlink:href="#SvgjsPath1522" x="630" y="510" stroke="rgba(14, 182, 61, 1)"></use><use xlink:href="#SvgjsPath1520" x="630" y="570" stroke="rgba(14, 182, 61, 1)"></use><use xlink:href="#SvgjsPath1519" x="630" y="630" stroke="rgba(14, 182, 61, 1)" stroke-width="3"></use><use xlink:href="#SvgjsPath1518" x="630" y="690" stroke="rgba(14, 182, 61, 1)"></use><use xlink:href="#SvgjsPath1518" x="690" y="30" stroke="rgba(14, 182, 61, 1)"></use><use xlink:href="#SvgjsPath1518" x="690" y="90" stroke="rgba(14, 182, 61, 1)"></use><use xlink:href="#SvgjsPath1520" x="690" y="150" stroke="rgba(14, 182, 61, 1)"></use><use xlink:href="#SvgjsPath1517" x="690" y="210" stroke="rgba(14, 182, 61, 1)"></use><use xlink:href="#SvgjsPath1520" x="690" y="270" stroke="rgba(14, 182, 61, 1)"></use><use xlink:href="#SvgjsPath1520" x="690" y="330" stroke="rgba(14, 182, 61, 1)"></use><use xlink:href="#SvgjsPath1517" x="690" y="390" stroke="rgba(14, 182, 61, 1)"></use><use xlink:href="#SvgjsPath1518" x="690" y="450" stroke="rgba(14, 182, 61, 1)"></use><use xlink:href="#SvgjsPath1520" x="690" y="510" stroke="rgba(14, 182, 61, 1)"></use><use xlink:href="#SvgjsPath1518" x="690" y="570" stroke="rgba(14, 182, 61, 1)"></use><use xlink:href="#SvgjsPath1518" x="690" y="630" stroke="rgba(14, 182, 61, 1)"></use><use xlink:href="#SvgjsPath1520" x="690" y="690" stroke="rgba(14, 182, 61, 1)"></use></symbol></svg>